<svg id="Group_1503" data-name="Group 1503" xmlns="http://www.w3.org/2000/svg" width="133.308" height="133.308" viewBox="0 0 133.308 133.308">
  <circle id="Ellipse_455" data-name="Ellipse 455" cx="66.654" cy="66.654" r="66.654" transform="translate(0 0)" fill="#d6d6d6"/>
  <g id="Group_1503-2" data-name="Group 1503" transform="translate(49.477 92.905)">
    <path id="Path_1230" data-name="Path 1230" d="M75.136,92.813a35.279,35.279,0,0,0-7.419-2.853,27.134,27.134,0,0,0-14.381.114,41.888,41.888,0,0,0-7.3,2.853h-.114a1.744,1.744,0,0,1-2.4-.8,1.945,1.945,0,0,1,0-1.6A17.5,17.5,0,0,1,50.6,83.8a21.3,21.3,0,0,1,19.631,0A17.5,17.5,0,0,1,77.3,90.531a1.7,1.7,0,0,1-.685,2.283,1.2,1.2,0,0,1-1.484,0Z" transform="translate(-43.35 -81.4)" fill="#676767"/>
  </g>
  <circle id="Ellipse_456" data-name="Ellipse 456" cx="15.979" cy="15.979" r="15.979" transform="translate(16.435 53.757)" fill="#676767"/>
  <circle id="Ellipse_457" data-name="Ellipse 457" cx="11.071" cy="11.071" r="11.071" transform="translate(21.115 61.061)" fill="#b0caff" opacity="0.2"/>
  <circle id="Ellipse_458" data-name="Ellipse 458" cx="3.881" cy="3.881" r="3.881" transform="translate(28.305 73.502)" fill="#fff" opacity="0.9"/>
  <circle id="Ellipse_459" data-name="Ellipse 459" cx="15.979" cy="15.979" r="15.979" transform="translate(85.143 53.757)" fill="#676767"/>
  <circle id="Ellipse_460" data-name="Ellipse 460" cx="11.071" cy="11.071" r="11.071" transform="translate(89.937 61.061)" fill="#b0caff" opacity="0.2"/>
  <circle id="Ellipse_461" data-name="Ellipse 461" cx="3.881" cy="3.881" r="3.881" transform="translate(97.127 73.502)" fill="#fff" opacity="0.9"/>
</svg>
