<svg width="151" height="123" viewBox="0 0 151 123" fill="none" xmlns="http://www.w3.org/2000/svg">
<g clip-path="url(#clip0_7896_66351)">
<path d="M150.105 6.6219H0.898256C0.676674 6.62166 0.464237 6.53307 0.307555 6.37557C0.150872 6.21807 0.0627419 6.00453 0.0625 5.7818V0.840101C0.0627419 0.617367 0.150872 0.403825 0.307555 0.246328C0.464237 0.0888316 0.676674 0.000243124 0.898256 0H150.105C150.327 0.000243124 150.539 0.0888316 150.696 0.246328C150.853 0.403825 150.941 0.617367 150.941 0.840101V5.7818C150.941 6.00453 150.853 6.21807 150.696 6.37557C150.539 6.53307 150.327 6.62166 150.105 6.6219Z" fill="#E4E4E4"/>
<path d="M4.91313 4.26047C5.56845 4.26047 6.09969 3.72646 6.09969 3.06773C6.09969 2.40901 5.56845 1.875 4.91313 1.875C4.25781 1.875 3.72656 2.40901 3.72656 3.06773C3.72656 3.72646 4.25781 4.26047 4.91313 4.26047Z" fill="white"/>
<path d="M9.41313 4.26047C10.0685 4.26047 10.5997 3.72646 10.5997 3.06773C10.5997 2.40901 10.0685 1.875 9.41313 1.875C8.75781 1.875 8.22656 2.40901 8.22656 3.06773C8.22656 3.72646 8.75781 4.26047 9.41313 4.26047Z" fill="white"/>
<path d="M13.9209 4.26047C14.5763 4.26047 15.1075 3.72646 15.1075 3.06773C15.1075 2.40901 14.5763 1.875 13.9209 1.875C13.2656 1.875 12.7344 2.40901 12.7344 3.06773C12.7344 3.72646 13.2656 4.26047 13.9209 4.26047Z" fill="white"/>
<path d="M148.974 123.001H82.6122C82.075 123.001 81.5599 122.786 81.1801 122.404C80.8002 122.022 80.5865 121.504 80.5859 120.964V73.8102C80.5865 73.2702 80.8002 72.7525 81.1801 72.3707C81.5599 71.9888 82.075 71.774 82.6122 71.7734H148.974C149.511 71.774 150.026 71.9888 150.406 72.3707C150.786 72.7525 151 73.2702 151 73.8102V120.964C151 121.504 150.786 122.022 150.406 122.404C150.026 122.786 149.511 123.001 148.974 123.001Z" fill="#E6E6E6"/>
<path d="M146.214 74.5469H85.3787C84.8413 74.5476 84.3261 74.7625 83.9461 75.1445C83.566 75.5264 83.3523 76.0443 83.3516 76.5845V118.183C83.3523 118.723 83.5661 119.241 83.9461 119.623C84.3261 120.005 84.8413 120.22 85.3787 120.221H146.214C146.751 120.22 147.266 120.005 147.646 119.623C148.026 119.241 148.239 118.723 148.24 118.183V76.5845C148.239 76.0445 148.026 75.5266 147.646 75.1446C147.266 74.7626 146.751 74.5476 146.214 74.5469Z" fill="white"/>
<path d="M121.339 94.3275C122.348 89.9072 119.602 85.5012 115.204 84.4864C110.807 83.4715 106.423 86.2322 105.414 90.6526C104.404 95.0729 107.151 99.4789 111.548 100.494C115.946 101.509 120.329 98.7478 121.339 94.3275Z" fill="#9E616A"/>
<path d="M136.872 112.489C136.572 111.062 135.892 109.743 134.905 108.674C133.918 107.605 132.661 106.825 131.268 106.417L131.262 106.414C130.996 106.282 130.714 106.185 130.424 106.125L120.606 104.106L118.639 101.984L110.269 102.521L109.396 104.962L99.7814 109.257L99.9408 109.145C99.5289 109.311 99.1283 109.504 98.7415 109.722L98.6928 109.744C98.4157 109.869 98.1582 110.034 97.9286 110.234C95.4837 111.94 93.8682 114.678 93.8085 117.73L93.5547 120.221H138.505L136.872 112.489Z" fill="#FF9B98"/>
<path d="M122.315 88.0871C121.647 85.9872 119.69 84.2141 117.497 84.2705C117.668 83.7467 117.376 83.1594 116.939 82.826C116.503 82.4926 115.951 82.3593 115.414 82.2468C114.304 82.0143 113.147 81.8369 112.044 82.0988C110.941 82.3607 109.895 83.1563 109.647 84.2681C108.642 83.3213 106.784 83.5832 106.077 84.7714C105.713 85.3828 105.662 86.2043 106.055 86.797C106.445 87.386 107.185 87.6511 107.889 87.6845C108.592 87.7179 109.289 87.5592 109.989 87.4853C111.662 87.3086 113.429 87.6476 114.782 88.653C116.134 89.6585 116.998 91.3826 116.758 93.0561C117.298 92.7088 118.077 92.95 118.455 93.4714C118.832 93.9928 118.862 94.7052 118.687 95.3256C118.511 95.946 118.155 96.4964 117.804 97.0362C117.158 98.0303 116.512 99.0243 115.865 100.018L116.13 100.195C117.105 100.609 118.16 99.8359 118.87 99.047C120.067 97.7158 121.031 96.1906 121.722 94.5359C122.57 92.5024 122.984 90.187 122.315 88.0871Z" fill="#2F2E41"/>
<path d="M87.0742 86.4829H2.57986C1.89588 86.4822 1.24013 86.2087 0.756478 85.7225C0.272827 85.2364 0.000774213 84.5772 0 83.8897V23.8511C0.000771757 23.1635 0.272824 22.5044 0.756475 22.0182C1.24013 21.5321 1.89587 21.2586 2.57986 21.2578H87.0742C87.7582 21.2586 88.414 21.5321 88.8976 22.0182C89.3813 22.5044 89.6533 23.1635 89.6541 23.8511V83.8897C89.6533 84.5772 89.3813 85.2364 88.8976 85.7225C88.414 86.2087 87.7582 86.4822 87.0742 86.4829Z" fill="#E6E6E6"/>
<path d="M83.5547 24.7969H6.09665C5.41239 24.7978 4.75641 25.0714 4.27256 25.5577C3.78872 26.0441 3.51651 26.7035 3.51562 27.3913V80.3563C3.5165 81.0441 3.78871 81.7035 4.27256 82.1899C4.75641 82.6762 5.41239 82.9499 6.09665 82.9507H83.5547C84.2387 82.9498 84.8945 82.6761 85.378 82.1897C85.8615 81.7033 86.1333 81.0439 86.1338 80.3563V27.3913C86.1333 26.7037 85.8615 26.0443 85.378 25.5579C84.8945 25.0715 84.2387 24.7978 83.5547 24.7969Z" fill="white"/>
<path d="M55.9701 49.6485L55.8273 49.9074C57.0989 46.7572 55.9426 42.8755 53.6742 40.5002C51.4058 38.1249 48.2523 37.0389 45.1471 36.6081C42.842 36.2883 40.4493 36.2975 38.2575 37.1463C35.0835 38.3754 32.6584 41.2206 30.6337 44.1805C29.7076 45.5343 28.797 47.0777 28.8893 48.7698C28.9749 50.3401 29.9022 51.6726 30.6615 53.0049C31.421 54.3371 32.0551 55.99 31.5101 57.4441C31.1854 58.3106 30.4989 58.9346 29.942 59.6434C29.3851 60.3523 28.9269 61.3103 29.196 62.1997C29.4136 62.9191 30.0684 63.3923 30.7417 63.5501C31.415 63.7078 32.1135 63.6047 32.7954 63.5012L50.4948 60.8131C51.6975 60.6305 52.8384 60.1582 53.8203 59.4365C54.8022 58.7148 55.5958 57.7651 56.1337 56.6685C56.6715 55.5718 56.9375 54.3607 56.909 53.1383C56.8806 51.916 56.5584 50.7187 55.9701 49.6485Z" fill="#2F2E41"/>
<path d="M42.8098 60.694C47.5891 60.694 51.4634 56.7995 51.4634 51.9954C51.4634 47.1914 47.5891 43.2969 42.8098 43.2969C38.0306 43.2969 34.1562 47.1914 34.1562 51.9954C34.1562 56.7995 38.0306 60.694 42.8098 60.694Z" fill="#FFB9B9"/>
<path d="M64.3932 71.6859C63.8332 70.4523 62.9499 69.3952 61.8379 68.6276C60.7259 67.86 59.4272 67.411 58.0808 67.3285L55.669 67.1818L55.6749 67.2072L49.544 63.5C49.6948 63.6736 39.5715 64.037 39.5715 64.037L35.8154 67.2943L34.2402 67.3902C32.8938 67.4726 31.5951 67.9216 30.4831 68.6892C29.3711 69.4568 28.4879 70.5139 27.9279 71.7475L22.8125 83.0116H33.0081L33.2446 81.9883C33.5019 82.3034 33.7514 82.624 33.9931 82.95H69.5085L64.3932 71.6859Z" fill="#FF9B98"/>
<path d="M51.0143 43.9217C50.7909 42.7338 49.5856 42.1905 48.553 41.9273C45.5577 41.1591 42.4419 40.9871 39.3809 41.421C37.1495 41.7409 34.8652 42.4462 33.2461 44.1969C31.9834 45.5624 31.2194 47.5186 31.1599 49.5382C31.1253 50.7153 31.3347 51.9402 31.9173 52.9315C32.4999 53.9227 33.493 54.6418 34.5182 54.6165L34.622 54.9795C38.9667 54.371 43.0025 51.6536 45.5443 47.6255C45.0673 49.3377 44.1179 50.8793 42.806 52.0721C45.7393 50.8923 48.289 48.917 50.1712 46.3664C50.6852 45.6806 51.1842 44.8254 51.0143 43.9217Z" fill="#2F2E41"/>
<path d="M145.689 2.2489H140.503C140.452 2.24906 140.402 2.23918 140.355 2.21985C140.308 2.20051 140.266 2.17209 140.23 2.13622C140.194 2.10034 140.166 2.05772 140.147 2.01079C140.127 1.96386 140.117 1.91355 140.117 1.86273C140.117 1.81192 140.127 1.7616 140.147 1.71467C140.166 1.66774 140.194 1.62512 140.23 1.58925C140.266 1.55337 140.308 1.52495 140.355 1.50561C140.402 1.48628 140.452 1.47641 140.503 1.47656H145.689C145.791 1.47688 145.888 1.51771 145.96 1.59009C146.032 1.66248 146.072 1.76052 146.072 1.86273C146.072 1.96494 146.032 2.06298 145.96 2.13537C145.888 2.20775 145.791 2.24858 145.689 2.2489Z" fill="white"/>
<path d="M145.689 3.69421H140.503C140.452 3.69437 140.402 3.6845 140.355 3.66516C140.308 3.64582 140.266 3.6174 140.23 3.58153C140.194 3.54566 140.166 3.50303 140.147 3.4561C140.127 3.40917 140.117 3.35886 140.117 3.30805C140.117 3.25723 140.127 3.20692 140.147 3.15999C140.166 3.11306 140.194 3.07043 140.23 3.03456C140.266 2.99868 140.308 2.97026 140.355 2.95093C140.402 2.93159 140.452 2.92172 140.503 2.92188H145.689C145.791 2.92219 145.888 2.96302 145.96 3.03541C146.032 3.10779 146.072 3.20584 146.072 3.30805C146.072 3.41026 146.032 3.5083 145.96 3.58068C145.888 3.65307 145.791 3.69389 145.689 3.69421Z" fill="white"/>
<path d="M145.689 5.14734H140.503C140.452 5.14749 140.402 5.13762 140.355 5.11829C140.308 5.09895 140.266 5.07053 140.23 5.03465C140.194 4.99878 140.166 4.95616 140.147 4.90923C140.127 4.8623 140.117 4.81198 140.117 4.76117C140.117 4.71035 140.127 4.66004 140.147 4.61311C140.166 4.56618 140.194 4.52356 140.23 4.48768C140.266 4.45181 140.308 4.42339 140.355 4.40405C140.402 4.38472 140.452 4.37484 140.503 4.375H145.689C145.791 4.37532 145.888 4.41615 145.96 4.48853C146.032 4.56092 146.072 4.65896 146.072 4.76117C146.072 4.86338 146.032 4.96142 145.96 5.03381C145.888 5.10619 145.791 5.14702 145.689 5.14734Z" fill="white"/>
</g>
<defs>
<clipPath id="clip0_7896_66351">
<rect width="151" height="123" fill="white"/>
</clipPath>
</defs>
</svg>
